<mxfile host="app.diagrams.net" modified="2024-04-11T09:35:13.228Z" agent="Mozilla/5.0 (Windows NT 10.0; Win64; x64) AppleWebKit/537.36 (KHTML, like Gecko) Chrome/123.0.0.0 Safari/537.36" version="24.2.1" etag="eeMDw7NxnD0yZmdVGj4j" type="github">
  <diagram name="Page-1" id="gMJXlB8iKMqF3ooz9ETH">
    <mxGraphModel>
      <root>
        <mxCell id="0" />
        <mxCell id="1" parent="0" />
      </root>
    </mxGraphModel>
  </diagram>
</mxfile>
